<?xml version="1.0" standalone="no"?>
<!DOCTYPE svg PUBLIC "-//W3C//DTD SVG 20010904//EN"
 "http://www.w3.org/TR/2001/REC-SVG-20010904/DTD/svg10.dtd">
<svg version="1.0" xmlns="http://www.w3.org/2000/svg"
 width="1000.000000pt" height="1000.000000pt" viewBox="0 0 1000.000000 1000.000000"
 preserveAspectRatio="xMidYMid meet">
<metadata>
Created by potrace 1.15, written by Peter Selinger 2001-2017
</metadata>
<g transform="translate(0.000000,1000.000000) scale(0.100000,-0.100000)"
fill="#000000" stroke="none">
<path d="M0 5000 l0 -5000 5000 0 5000 0 0 5000 0 5000 -5000 0 -5000 0 0
-5000z m5120 -1899 l0 -518 80 28 c134 48 236 62 395 56 97 -4 164 -12 219
-27 193 -52 352 -166 463 -332 42 -64 113 -212 113 -237 0 -28 18 -3 58 78
135 276 412 474 732 522 106 16 324 6 430 -21 101 -25 249 -93 334 -154 69
-50 178 -159 223 -226 34 -50 99 -175 119 -230 10 -29 13 58 13 536 l1 571
288 47 c158 25 290 46 295 46 4 0 7 -137 7 -305 l0 -305 355 0 355 0 0 -245 0
-245 -355 0 -355 0 0 -387 c0 -214 5 -417 10 -451 22 -158 77 -245 173 -279
95 -33 311 -20 467 27 55 17 60 17 64 1 8 -27 76 -413 76 -432 0 -24 -185 -84
-324 -105 -141 -22 -409 -14 -523 15 -119 30 -230 89 -310 165 -110 103 -166
216 -199 397 l-17 91 -27 -70 c-119 -307 -348 -511 -665 -593 -77 -20 -114
-24 -265 -24 -193 0 -274 13 -407 66 -224 89 -421 279 -518 502 -16 37 -32 67
-35 66 -3 0 -26 -45 -52 -99 -127 -261 -348 -430 -658 -501 -226 -53 -675 -27
-1036 58 l-114 27 0 1457 0 1456 273 46 c149 24 282 45 295 46 l22 1 0 -519z
m-1201 -1734 c124 -51 208 -133 253 -246 19 -47 22 -75 22 -181 0 -106 -3
-134 -22 -181 -45 -112 -128 -193 -253 -246 -58 -25 -76 -27 -184 -27 -108 0
-126 2 -184 27 -179 76 -268 200 -278 392 -12 212 69 362 243 445 87 42 126
50 239 46 80 -2 113 -8 164 -29z"/>
<path d="M5370 2164 c-91 -15 -142 -29 -192 -51 l-58 -26 0 -532 0 -532 38 -6
c386 -59 590 50 674 362 28 104 30 331 4 446 -50 220 -167 330 -365 340 -42 2
-87 2 -101 -1z"/>
<path d="M7245 2156 c-74 -18 -125 -48 -177 -104 -57 -60 -93 -130 -120 -230
-30 -112 -30 -353 1 -467 28 -104 62 -173 115 -232 144 -159 403 -161 549 -4
99 106 142 255 141 481 -2 164 -20 253 -74 360 -83 164 -253 241 -435 196z"/>
</g>
</svg>
